<mxfile host="app.diagrams.net" modified="2023-12-18T15:49:12.829Z" agent="Mozilla/5.0 (Windows NT 10.0; Win64; x64) AppleWebKit/537.36 (KHTML, like Gecko) Chrome/120.0.0.0 Safari/537.36" version="21.6.6" etag="TBv3ACg9UQvXUpVYaZlQ" type="github">
  <diagram name="Page-1" id="lhHhctude7bWxkbBs3kO">
    <mxGraphModel>
      <root>
        <mxCell id="0" />
        <mxCell id="1" parent="0" />
      </root>
    </mxGraphModel>
  </diagram>
</mxfile>
